<svg width="40" height="41" viewBox="0 0 40 41" fill="none" xmlns="http://www.w3.org/2000/svg">
<path d="M35 8C35 7.33696 34.7366 6.70107 34.2678 6.23223C33.7989 5.76339 33.163 5.5 32.5 5.5H27.5V3H25V5.5H15V3H12.5V5.5H7.5C6.83696 5.5 6.20107 5.76339 5.73223 6.23223C5.26339 6.70107 5 7.33696 5 8V33C5 33.663 5.26339 34.2989 5.73223 34.7678C6.20107 35.2366 6.83696 35.5 7.5 35.5H12.5V33H7.5V8H12.5V10.5H15V8H25V10.5H27.5V8H32.5V15.5H35V8Z" fill="#722E23"/>
<path d="M26.25 19.25L29.4362 25.4225L36.25 26.4113L31.25 31.2162L32.5 38L26.25 34.7975L20 38L21.25 31.2162L16.25 26.4113L23.25 25.4225L26.25 19.25Z" fill="#722E23"/>
</svg>
