<svg width="44" height="43" viewBox="0 0 44 43" fill="none" xmlns="http://www.w3.org/2000/svg">
<rect x="0.5" width="43" height="43" rx="21.5" fill="#E9CFC0" fill-opacity="0.5"/>
<path d="M22.5 32.75C24.9962 32.7496 27.4213 31.9191 29.3936 30.3892C31.366 28.8593 32.7735 26.7169 33.3946 24.2992C34.0156 21.8816 33.815 19.3261 32.8243 17.0349C31.8336 14.7438 30.1091 12.8473 27.9222 11.6438C25.7353 10.4404 23.2103 9.99843 20.7447 10.3875C18.279 10.7767 16.0128 11.9747 14.3028 13.7931C12.5928 15.6116 11.5362 17.947 11.2992 20.4319C11.0622 22.9168 11.6583 25.4099 12.9938 27.5188L11.25 32.75L16.4813 31.0063C18.2808 32.1483 20.3687 32.7533 22.5 32.75Z" fill="#722E23" stroke="#722E23" stroke-width="2" stroke-linecap="round" stroke-linejoin="round"/>
</svg>
