<svg width="40" height="40" viewBox="0 0 40 40" fill="none" xmlns="http://www.w3.org/2000/svg">
<path d="M16.6667 21.6669C17.3825 22.6238 18.2957 23.4156 19.3443 23.9885C20.393 24.5614 21.5526 24.9021 22.7445 24.9875C23.9364 25.0729 25.1327 24.9009 26.2523 24.4832C27.3719 24.0656 28.3886 23.4121 29.2334 22.5669L34.2334 17.5669C35.7514 15.9952 36.5914 13.8902 36.5724 11.7053C36.5534 9.52028 35.677 7.43018 34.1319 5.88511C32.5868 4.34005 30.4967 3.46364 28.3118 3.44465C26.1268 3.42566 24.0218 4.26562 22.4501 5.7836L19.5834 8.6336" stroke="#722E23" stroke-width="2" stroke-linecap="round" stroke-linejoin="round"/>
<path d="M23.3334 18.334C22.6177 17.3772 21.7045 16.5854 20.6558 16.0125C19.6072 15.4395 18.4476 15.0988 17.2557 15.0135C16.0638 14.9281 14.8674 15.1001 13.7478 15.5177C12.6282 15.9354 11.6116 16.5889 10.7668 17.434L5.76676 22.434C4.24877 24.0057 3.40882 26.1107 3.42781 28.2957C3.44679 30.4807 4.3232 32.5708 5.86827 34.1159C7.41334 35.6609 9.50344 36.5373 11.6884 36.5563C13.8734 36.5753 15.9784 35.7354 17.5501 34.2174L20.4001 31.3674" stroke="#722E23" stroke-width="2" stroke-linecap="round" stroke-linejoin="round"/>
</svg>
