<svg width="48" height="49" viewBox="0 0 48 49" fill="none" xmlns="http://www.w3.org/2000/svg">
<path d="M7 20.5H3.9C3.5 20.5 3.20866 20.3253 3.026 19.976C2.84333 19.6267 2.868 19.2847 3.1 18.95L8.1 11.8C8.26666 11.6 8.45866 11.5333 8.676 11.6C8.89333 11.6667 9.00133 11.8333 9 12.1V16.5H12.1C12.5 16.5 12.7913 16.6753 12.974 17.026C13.1567 17.3767 13.132 17.718 12.9 18.05L7.9 25.2C7.73333 25.4 7.54133 25.4667 7.324 25.4C7.10666 25.3333 6.99866 25.1667 7 24.9V20.5ZM13.6 40.5C11.9333 40.5 10.5167 39.9167 9.35 38.75C8.18333 37.5833 7.6 36.1667 7.6 34.5C7.6 33.6667 7.792 32.8833 8.176 32.15C8.56 31.4167 9.08466 30.7833 9.75 30.25L21.7 12.5H15.5C14.9333 12.5 14.4667 12.308 14.1 11.924C13.7333 11.54 13.55 11.0653 13.55 10.5C13.55 9.93467 13.742 9.46 14.126 9.076C14.51 8.692 14.9847 8.5 15.55 8.5H33.5C34.1667 8.5 34.7 8.75 35.1 9.25C35.5 9.75 35.6167 10.3167 35.45 10.95L34.15 16.5H38C38.6333 16.5 39.2333 16.642 39.8 16.926C40.3667 17.21 40.8333 17.6013 41.2 18.1L44.95 23.05C45.3167 23.5167 45.55 24.0253 45.65 24.576C45.75 25.1267 45.75 25.6847 45.65 26.25L44.3 32.9C44.2 33.3667 43.9667 33.75 43.6 34.05C43.2333 34.35 42.8167 34.5 42.35 34.5H40C40 36.1667 39.4167 37.5833 38.25 38.75C37.0833 39.9167 35.6667 40.5 34 40.5C32.3333 40.5 30.9167 39.9167 29.75 38.75C28.5833 37.5833 28 36.1667 28 34.5H19.6C19.6 36.1667 19.0167 37.5833 17.85 38.75C16.6833 39.9167 15.2667 40.5 13.6 40.5ZM14 36.5C14.5667 36.5 15.042 36.308 15.426 35.924C15.81 35.54 16.0013 35.0653 16 34.5C15.9987 33.9347 15.8067 33.46 15.424 33.076C15.0413 32.692 14.5667 32.5 14 32.5C13.4333 32.5 12.9587 32.692 12.576 33.076C12.1933 33.46 12.0013 33.9347 12 34.5C11.9987 35.0653 12.1907 35.5407 12.576 35.926C12.9613 36.3113 13.436 36.5027 14 36.5ZM34 36.5C34.5667 36.5 35.042 36.308 35.426 35.924C35.81 35.54 36.0013 35.0653 36 34.5C35.9987 33.9347 35.8067 33.46 35.424 33.076C35.0413 32.692 34.5667 32.5 34 32.5C33.4333 32.5 32.9587 32.692 32.576 33.076C32.1933 33.46 32.0013 33.9347 32 34.5C31.9987 35.0653 32.1907 35.5407 32.576 35.926C32.9613 36.3113 33.436 36.5027 34 36.5ZM31.85 26.5H41.5L41.7 25.45L38 20.5H33.25L31.85 26.5Z" fill="#722E23"/>
</svg>
