<svg width="40" height="41" viewBox="0 0 40 41" fill="none" xmlns="http://www.w3.org/2000/svg">
<path d="M20 28.1666C19.3333 28.1666 18.6667 28.1166 18.0333 28C14.5 27.4833 11.2833 25.45 9.25 22.4333C7.83334 20.3 7.08334 17.8166 7.08334 15.25C7.08334 8.13331 12.8833 2.33331 20 2.33331C27.1167 2.33331 32.9167 8.13331 32.9167 15.25C32.9167 17.8166 32.1667 20.3 30.75 22.4333C28.7 25.4666 25.4833 27.4833 21.9167 28.0167C21.3333 28.1167 20.6667 28.1666 20 28.1666ZM20 4.83331C14.25 4.83331 9.58334 9.49998 9.58334 15.25C9.58334 17.3333 10.1833 19.3333 11.3167 21.0333C12.9667 23.4666 15.55 25.1 18.4167 25.5167C19.4833 25.7 20.5333 25.7 21.5167 25.5167C24.4333 25.1 27.0167 23.45 28.6667 21.0166C29.8 19.3166 30.4 17.3166 30.4 15.2333C30.4167 9.49996 25.75 4.83331 20 4.83331Z" fill="#722E23"/>
<path d="M10.783 37.9C10.5497 37.9 10.333 37.8667 10.0997 37.8167C9.01637 37.5667 8.18303 36.7333 7.93303 35.65L7.3497 33.2C7.31637 33.05 7.1997 32.9333 7.03303 32.8833L4.28303 32.2333C3.2497 31.9833 2.43303 31.2166 2.1497 30.2C1.86637 29.1833 2.1497 28.0833 2.8997 27.3333L9.3997 20.8333C9.66637 20.5666 10.033 20.4333 10.3997 20.4666C10.7664 20.5 11.0997 20.7 11.3164 21.0166C12.9664 23.45 15.5497 25.1 18.433 25.5166C19.4997 25.7 20.5497 25.7 21.533 25.5166C24.4497 25.1 27.033 23.45 28.683 21.0166C28.883 20.7 29.233 20.5 29.5997 20.4666C29.9664 20.4333 30.333 20.5666 30.5997 20.8333L37.0997 27.3333C37.8497 28.0833 38.133 29.1833 37.8497 30.2C37.5664 31.2166 36.733 32 35.7164 32.2333L32.9664 32.8833C32.8164 32.9166 32.6997 33.0333 32.6497 33.2L32.0664 35.65C31.8164 36.7333 30.983 37.5667 29.8997 37.8167C28.8164 38.0833 27.6997 37.7 26.9997 36.85L19.9997 28.8L12.9997 36.8666C12.433 37.5333 11.633 37.9 10.783 37.9ZM10.1497 23.6333L4.66637 29.1166C4.51637 29.2666 4.53303 29.4333 4.56637 29.5333C4.58303 29.6166 4.66637 29.7833 4.86637 29.8166L7.61637 30.4666C8.6997 30.7166 9.53303 31.55 9.78303 32.6333L10.3664 35.0833C10.4164 35.3 10.583 35.3666 10.683 35.4C10.783 35.4166 10.9497 35.4333 11.0997 35.2667L17.483 27.9166C14.6497 27.3666 12.0497 25.85 10.1497 23.6333ZM22.5164 27.9L28.8997 35.2333C29.0497 35.4166 29.233 35.4166 29.333 35.3833C29.433 35.3666 29.583 35.2833 29.6497 35.0667L30.233 32.6167C30.483 31.5333 31.3164 30.7 32.3997 30.45L35.1497 29.8C35.3497 29.75 35.433 29.6 35.4497 29.5166C35.483 29.4333 35.4997 29.25 35.3497 29.1L29.8664 23.6166C27.9497 25.8333 25.3664 27.35 22.5164 27.9Z" fill="#722E23"/>
<path d="M23.1502 21.7338C22.7169 21.7338 22.2002 21.6171 21.5836 21.2504L20.0002 20.3004L18.4169 21.2337C16.9669 22.1004 16.0169 21.6004 15.6669 21.3504C15.3169 21.1004 14.5669 20.3504 14.9502 18.7004L15.3502 16.9838L14.0169 15.7504C13.2836 15.0171 13.0169 14.1338 13.2669 13.3338C13.5169 12.5338 14.2502 11.9671 15.2836 11.8004L17.0669 11.5004L17.9169 9.63375C18.4002 8.68375 19.1502 8.15039 20.0002 8.15039C20.8502 8.15039 21.6169 8.70043 22.0836 9.65043L23.0669 11.6171L24.7169 11.8171C25.7336 11.9837 26.4669 12.5504 26.7336 13.3504C26.9836 14.1504 26.7169 15.0337 25.9836 15.7671L24.6002 17.1504L25.0336 18.7004C25.4169 20.3504 24.6669 21.1004 24.3169 21.3504C24.1336 21.5004 23.7336 21.7338 23.1502 21.7338ZM16.0169 14.2338L17.1669 15.3837C17.7002 15.9171 17.9669 16.8171 17.8002 17.5504L17.4836 18.8837L18.8169 18.1004C19.5336 17.6837 20.5002 17.6837 21.2002 18.1004L22.5336 18.8837L22.2336 17.5504C22.0669 16.8004 22.3169 15.9171 22.8502 15.3837L24.0002 14.2338L22.5502 13.9837C21.8502 13.8671 21.1502 13.3504 20.8336 12.7171L20.0002 11.0837L19.1669 12.7504C18.8669 13.3671 18.1669 13.9004 17.4669 14.0171L16.0169 14.2338Z" fill="#722E23"/>
</svg>
