<svg width="39" height="18" viewBox="0 0 39 18" fill="none" xmlns="http://www.w3.org/2000/svg">
<path d="M37.9 16.2111L33.5444 8.85556L37.8556 1.8C37.9579 1.63187 38.0138 1.43956 38.0174 1.24276C38.021 1.04595 37.9723 0.851708 37.8763 0.679906C37.7802 0.508104 37.6402 0.364908 37.4706 0.264969C37.301 0.165029 37.1079 0.111934 36.9111 0.111115H2.22222C1.63285 0.111115 1.06762 0.345241 0.650874 0.761989C0.234126 1.17874 0 1.74397 0 2.33334L0 15.6667C0 16.256 0.234126 16.8213 0.650874 17.238C1.06762 17.6548 1.63285 17.8889 2.22222 17.8889H36.9444C37.1406 17.8889 37.3332 17.8369 37.5027 17.7383C37.6723 17.6398 37.8127 17.4981 37.9097 17.3277C38.0068 17.1573 38.057 16.9642 38.0553 16.7681C38.0536 16.572 38 16.3798 37.9 16.2111ZM11.6778 12.5333H10.4333L6.81111 7.71111V12.5444H5.55556V5.66667H6.81111L10.4444 10.5V5.66667H11.6889L11.6778 12.5333ZM18.7111 6.77778H14.7889V8.43334H18.3444V9.54445H14.7889V11.3333H18.7111V12.4444H13.5333V5.66667H18.7L18.7111 6.77778ZM27.9222 12.5111H26.6667L24.9444 7.41111L23.2222 12.5333H21.9778L19.7556 5.66667H21.1111L22.5778 10.5889L24.2667 5.66667H25.6222L27.2444 10.5889L28.7222 5.66667H30.0889L27.9222 12.5111Z" fill="#722E23"/>
</svg>
