<svg width="44" height="44" viewBox="0 0 44 44" fill="none" xmlns="http://www.w3.org/2000/svg">
<rect x="0.5" y="0.689453" width="43" height="43" rx="21.5" fill="#E9CFC0" fill-opacity="0.5"/>
<path fill-rule="evenodd" clip-rule="evenodd" d="M14.063 11.4395H17.814C17.9665 11.4395 18.1154 11.486 18.2409 11.5728C18.3663 11.6596 18.4623 11.7827 18.516 11.9255L19.972 15.7955C20.0199 15.9234 20.032 16.0621 20.007 16.1965L19.277 20.1085C20.174 22.2165 21.655 23.6335 24.11 24.9045L27.975 24.1545C28.1123 24.128 28.2543 24.1405 28.385 24.1905L32.267 25.6705C32.4089 25.7245 32.531 25.8204 32.6173 25.9454C32.7035 26.0704 32.7498 26.2186 32.75 26.3705V29.9545C32.75 31.5805 31.318 32.8995 29.642 32.5345C26.589 31.8705 20.932 30.1815 16.97 26.2195C13.174 22.4245 11.902 17.1825 11.475 14.3495C11.23 12.7315 12.527 11.4395 14.063 11.4395Z" fill="#722E23"/>
</svg>
