<svg width="17" height="19" viewBox="0 0 17 19" fill="none" xmlns="http://www.w3.org/2000/svg">
<path d="M7.2263 0.754478C7.01132 0.89926 6.63401 1.22392 6.33128 1.53104L5.8048 2.05752L5.80919 5.52351C5.80919 7.42762 5.80042 9.11235 5.78726 9.26152C5.76971 9.49405 5.75216 9.53793 5.68196 9.53793C5.63809 9.53793 5.48892 9.56425 5.34852 9.59935C5.21251 9.63445 4.94489 9.69587 4.76062 9.73097C3.87876 9.91085 3.72082 9.94595 3.49707 9.9986C3.20311 10.0688 2.76877 10.1653 2.26861 10.2618C2.06241 10.3057 1.83865 10.354 1.76407 10.3671C1.66316 10.3891 1.61051 10.4417 1.53593 10.5909C1.36482 10.9463 1.15423 11.714 1.10597 12.1659L1.07526 12.4467L1.35166 12.416C1.50521 12.3985 1.74213 12.359 1.87375 12.3239C2.00537 12.2932 2.273 12.2318 2.46604 12.1923C2.65908 12.1484 2.93549 12.0914 3.08027 12.0563C3.22505 12.0255 3.48829 11.9685 3.66378 11.929C4.02793 11.8544 4.50177 11.7491 4.87908 11.6658C5.33097 11.5693 5.71267 11.4903 5.75216 11.4903C5.77409 11.4903 5.79603 11.9948 5.80042 12.6617L5.80919 13.8287L5.62931 13.8726C5.53279 13.8946 5.29149 13.9516 5.09844 13.9911C4.9054 14.0306 4.62022 14.092 4.46228 14.1271C4.30434 14.1578 4.02793 14.2192 3.84805 14.2543C3.66817 14.2938 3.40054 14.3552 3.25576 14.3859C2.95742 14.4561 2.41339 14.5702 1.39114 14.7852C0.680395 14.9344 0.715494 14.9212 0.627747 15.1449C0.338183 15.882 0.088105 16.9964 0.206563 16.9964C0.250436 16.9964 0.601423 16.9262 0.974347 16.8428C1.11913 16.8121 1.39553 16.7507 1.58857 16.7112C1.78162 16.6717 2.01415 16.6191 2.10628 16.5928C2.2028 16.5708 2.37829 16.5357 2.50114 16.5138C2.62837 16.4919 2.91794 16.4304 3.14608 16.3822C3.37422 16.3295 3.60236 16.2813 3.65062 16.2725C3.69888 16.2681 3.81734 16.2374 3.91386 16.2155C4.01038 16.1891 4.15955 16.154 4.24291 16.1409C4.32627 16.1277 4.46667 16.097 4.55003 16.0751C4.63339 16.0531 4.77378 16.0224 4.85714 16.0092C5.89255 15.8469 6.2567 15.6363 6.73492 14.9431C7.18682 14.2894 7.62555 13.6094 7.66942 13.5041C7.70452 13.4163 7.71768 13.0653 7.7133 12.4248C7.70452 11.9027 7.71768 11.385 7.73084 11.2753C7.76594 11.0559 7.76594 11.0559 8.28365 10.9419C8.38895 10.9199 8.66535 10.8629 8.89349 10.8103C9.12163 10.762 9.36293 10.7093 9.43313 10.6918L9.55159 10.6655V12.5827V14.5L9.71831 14.4737C9.80606 14.4561 9.99032 14.4166 10.1219 14.3859C10.2536 14.3552 10.5212 14.2938 10.7142 14.2543C10.9073 14.2148 11.1925 14.1578 11.3504 14.1227C11.912 14.0042 12.2542 13.9297 12.5789 13.8595C12.7587 13.82 13.0483 13.7585 13.215 13.7234C13.3861 13.6883 13.6406 13.6313 13.7854 13.5962C13.9302 13.5655 14.2066 13.5041 14.3996 13.4646C14.5926 13.4251 14.869 13.3637 15.0138 13.333C15.1586 13.3023 15.356 13.2628 15.4526 13.2452C15.6061 13.2233 15.6412 13.197 15.7026 13.0566C15.9176 12.5564 16.1765 11.5868 16.1765 11.2929C16.1765 11.1788 16.1633 11.1612 16.0799 11.1788C16.0229 11.192 15.8299 11.2314 15.65 11.2709C15.4701 11.3104 15.1849 11.3718 15.0138 11.4069C14.8471 11.442 14.5575 11.4991 14.3777 11.5386C14.1978 11.5737 13.9302 11.6351 13.7854 11.6658C13.5134 11.7272 13.0834 11.8237 12.5569 11.9334C12.3902 11.9685 12.127 12.0299 11.9778 12.065C11.8286 12.0957 11.6531 12.1265 11.5917 12.1265H11.482V11.192V10.2531L11.7365 10.2004C11.8725 10.1741 12.1182 10.1214 12.2849 10.0863C12.4472 10.0512 12.7236 9.98982 12.8991 9.95472C13.0702 9.91524 13.3335 9.8582 13.4783 9.8231C13.9214 9.72219 14.2636 9.652 14.3338 9.64322C14.4128 9.63883 14.7681 9.55986 15.1323 9.46773C15.2727 9.43263 15.435 9.40631 15.4964 9.40631C15.5754 9.40631 15.6237 9.36682 15.6851 9.23959C15.8518 8.91054 16.1765 7.69963 16.1765 7.42762V7.30916L15.9264 7.36619C15.2376 7.51975 14.6409 7.63821 14.3777 7.67331C14.268 7.68647 14.0618 7.72596 13.917 7.76105C13.7722 7.79615 13.509 7.85319 13.3379 7.89268C12.6666 8.03307 12.3726 8.09888 12.1182 8.15592C11.9734 8.18663 11.7716 8.22611 11.6707 8.24366L11.482 8.27437V4.83031V1.38187L11.2539 1.52226C10.8195 1.7855 10.4949 2.04874 10.0254 2.5138L9.55159 2.97886V5.8394V8.70433L9.45507 8.72188C9.22254 8.77014 8.67851 8.8886 8.43282 8.94564C8.28804 8.97635 8.08183 9.02461 7.97215 9.05093C7.86685 9.07287 7.76594 9.08603 7.75278 9.07287C7.73962 9.05971 7.73084 7.12489 7.73084 4.77328C7.73084 1.00456 7.72207 0.500013 7.66504 0.500013C7.62994 0.5044 7.43251 0.614084 7.2263 0.754478Z" fill="url(#paint0_linear_140_123)"/>
<path d="M7.2263 0.754478C7.01132 0.89926 6.63401 1.22392 6.33128 1.53104L5.8048 2.05752L5.80919 5.52351C5.80919 7.42762 5.80042 9.11235 5.78726 9.26152C5.76971 9.49405 5.75216 9.53793 5.68196 9.53793C5.63809 9.53793 5.48892 9.56425 5.34852 9.59935C5.21251 9.63445 4.94489 9.69587 4.76062 9.73097C3.87876 9.91085 3.72082 9.94595 3.49707 9.9986C3.20311 10.0688 2.76877 10.1653 2.26861 10.2618C2.06241 10.3057 1.83865 10.354 1.76407 10.3671C1.66316 10.3891 1.61051 10.4417 1.53593 10.5909C1.36482 10.9463 1.15423 11.714 1.10597 12.1659L1.07526 12.4467L1.35166 12.416C1.50521 12.3985 1.74213 12.359 1.87375 12.3239C2.00537 12.2932 2.273 12.2318 2.46604 12.1923C2.65908 12.1484 2.93549 12.0914 3.08027 12.0563C3.22505 12.0255 3.48829 11.9685 3.66378 11.929C4.02793 11.8544 4.50177 11.7491 4.87908 11.6658C5.33097 11.5693 5.71267 11.4903 5.75216 11.4903C5.77409 11.4903 5.79603 11.9948 5.80042 12.6617L5.80919 13.8287L5.62931 13.8726C5.53279 13.8946 5.29149 13.9516 5.09844 13.9911C4.9054 14.0306 4.62022 14.092 4.46228 14.1271C4.30434 14.1578 4.02793 14.2192 3.84805 14.2543C3.66817 14.2938 3.40054 14.3552 3.25576 14.3859C2.95742 14.4561 2.41339 14.5702 1.39114 14.7852C0.680395 14.9344 0.715494 14.9212 0.627747 15.1449C0.338183 15.882 0.088105 16.9964 0.206563 16.9964C0.250436 16.9964 0.601423 16.9262 0.974347 16.8428C1.11913 16.8121 1.39553 16.7507 1.58857 16.7112C1.78162 16.6717 2.01415 16.6191 2.10628 16.5928C2.2028 16.5708 2.37829 16.5357 2.50114 16.5138C2.62837 16.4919 2.91794 16.4304 3.14608 16.3822C3.37422 16.3295 3.60236 16.2813 3.65062 16.2725C3.69888 16.2681 3.81734 16.2374 3.91386 16.2155C4.01038 16.1891 4.15955 16.154 4.24291 16.1409C4.32627 16.1277 4.46667 16.097 4.55003 16.0751C4.63339 16.0531 4.77378 16.0224 4.85714 16.0092C5.89255 15.8469 6.2567 15.6363 6.73492 14.9431C7.18682 14.2894 7.62555 13.6094 7.66942 13.5041C7.70452 13.4163 7.71768 13.0653 7.7133 12.4248C7.70452 11.9027 7.71768 11.385 7.73084 11.2753C7.76594 11.0559 7.76594 11.0559 8.28365 10.9419C8.38895 10.9199 8.66535 10.8629 8.89349 10.8103C9.12163 10.762 9.36293 10.7093 9.43313 10.6918L9.55159 10.6655V12.5827V14.5L9.71831 14.4737C9.80606 14.4561 9.99032 14.4166 10.1219 14.3859C10.2536 14.3552 10.5212 14.2938 10.7142 14.2543C10.9073 14.2148 11.1925 14.1578 11.3504 14.1227C11.912 14.0042 12.2542 13.9297 12.5789 13.8595C12.7587 13.82 13.0483 13.7585 13.215 13.7234C13.3861 13.6883 13.6406 13.6313 13.7854 13.5962C13.9302 13.5655 14.2066 13.5041 14.3996 13.4646C14.5926 13.4251 14.869 13.3637 15.0138 13.333C15.1586 13.3023 15.356 13.2628 15.4526 13.2452C15.6061 13.2233 15.6412 13.197 15.7026 13.0566C15.9176 12.5564 16.1765 11.5868 16.1765 11.2929C16.1765 11.1788 16.1633 11.1612 16.0799 11.1788C16.0229 11.192 15.8299 11.2314 15.65 11.2709C15.4701 11.3104 15.1849 11.3718 15.0138 11.4069C14.8471 11.442 14.5575 11.4991 14.3777 11.5386C14.1978 11.5737 13.9302 11.6351 13.7854 11.6658C13.5134 11.7272 13.0834 11.8237 12.5569 11.9334C12.3902 11.9685 12.127 12.0299 11.9778 12.065C11.8286 12.0957 11.6531 12.1265 11.5917 12.1265H11.482V11.192V10.2531L11.7365 10.2004C11.8725 10.1741 12.1182 10.1214 12.2849 10.0863C12.4472 10.0512 12.7236 9.98982 12.8991 9.95472C13.0702 9.91524 13.3335 9.8582 13.4783 9.8231C13.9214 9.72219 14.2636 9.652 14.3338 9.64322C14.4128 9.63883 14.7681 9.55986 15.1323 9.46773C15.2727 9.43263 15.435 9.40631 15.4964 9.40631C15.5754 9.40631 15.6237 9.36682 15.6851 9.23959C15.8518 8.91054 16.1765 7.69963 16.1765 7.42762V7.30916L15.9264 7.36619C15.2376 7.51975 14.6409 7.63821 14.3777 7.67331C14.268 7.68647 14.0618 7.72596 13.917 7.76105C13.7722 7.79615 13.509 7.85319 13.3379 7.89268C12.6666 8.03307 12.3726 8.09888 12.1182 8.15592C11.9734 8.18663 11.7716 8.22611 11.6707 8.24366L11.482 8.27437V4.83031V1.38187L11.2539 1.52226C10.8195 1.7855 10.4949 2.04874 10.0254 2.5138L9.55159 2.97886V5.8394V8.70433L9.45507 8.72188C9.22254 8.77014 8.67851 8.8886 8.43282 8.94564C8.28804 8.97635 8.08183 9.02461 7.97215 9.05093C7.86685 9.07287 7.76594 9.08603 7.75278 9.07287C7.73962 9.05971 7.73084 7.12489 7.73084 4.77328C7.73084 1.00456 7.72207 0.500013 7.66504 0.500013C7.62994 0.5044 7.43251 0.614084 7.2263 0.754478Z" fill="black" fill-opacity="0.2"/>
<path d="M15.8913 15.0398C15.7729 15.0705 15.514 15.1319 15.321 15.1714C15.1279 15.2153 14.8515 15.2723 14.7068 15.3074C14.562 15.3381 14.2856 15.3952 14.0925 15.439C13.8995 15.4785 13.6231 15.5399 13.4783 15.5707C13.3335 15.6058 13.1668 15.6408 13.1054 15.6496C13.044 15.6628 12.807 15.7154 12.5789 15.7637C12.3508 15.8163 11.9647 15.8953 11.7234 15.9436C11.2539 16.0357 10.8415 16.1278 10.394 16.2375C10.1352 16.3033 10.1132 16.3165 10.0342 16.4876C9.80172 17.0009 9.50777 18.1987 9.59552 18.2864C9.635 18.3259 9.88508 18.2864 10.451 18.1592C10.5958 18.1241 10.8591 18.067 11.0346 18.0276C11.8023 17.8652 11.9603 17.8301 12.2499 17.7687C12.421 17.7336 12.6052 17.6941 12.6667 17.6853C12.7281 17.6722 12.965 17.6195 13.1931 17.5669C13.4213 17.5142 13.6977 17.4528 13.8074 17.4309C13.917 17.4133 14.1452 17.3651 14.3119 17.33C14.483 17.2905 14.7462 17.2422 14.9042 17.2159C15.0621 17.1896 15.2903 17.1457 15.4175 17.1194L15.6457 17.0711L15.7773 16.7333C16.0098 16.1278 16.2555 14.9696 16.1502 14.9827C16.1283 14.9827 16.0142 15.0091 15.8913 15.0398Z" fill="url(#paint1_linear_140_123)"/>
<path d="M15.8913 15.0398C15.7729 15.0705 15.514 15.1319 15.321 15.1714C15.1279 15.2153 14.8515 15.2723 14.7068 15.3074C14.562 15.3381 14.2856 15.3952 14.0925 15.439C13.8995 15.4785 13.6231 15.5399 13.4783 15.5707C13.3335 15.6058 13.1668 15.6408 13.1054 15.6496C13.044 15.6628 12.807 15.7154 12.5789 15.7637C12.3508 15.8163 11.9647 15.8953 11.7234 15.9436C11.2539 16.0357 10.8415 16.1278 10.394 16.2375C10.1352 16.3033 10.1132 16.3165 10.0342 16.4876C9.80172 17.0009 9.50777 18.1987 9.59552 18.2864C9.635 18.3259 9.88508 18.2864 10.451 18.1592C10.5958 18.1241 10.8591 18.067 11.0346 18.0276C11.8023 17.8652 11.9603 17.8301 12.2499 17.7687C12.421 17.7336 12.6052 17.6941 12.6667 17.6853C12.7281 17.6722 12.965 17.6195 13.1931 17.5669C13.4213 17.5142 13.6977 17.4528 13.8074 17.4309C13.917 17.4133 14.1452 17.3651 14.3119 17.33C14.483 17.2905 14.7462 17.2422 14.9042 17.2159C15.0621 17.1896 15.2903 17.1457 15.4175 17.1194L15.6457 17.0711L15.7773 16.7333C16.0098 16.1278 16.2555 14.9696 16.1502 14.9827C16.1283 14.9827 16.0142 15.0091 15.8913 15.0398Z" fill="black" fill-opacity="0.2"/>
<defs>
<linearGradient id="paint0_linear_140_123" x1="0.176468" y1="16.9964" x2="4.31731" y2="-2.29174" gradientUnits="userSpaceOnUse">
<stop stop-color="#722E23"/>
</linearGradient>
<linearGradient id="paint1_linear_140_123" x1="9.57964" y1="18.3011" x2="10.0002" y2="14.2863" gradientUnits="userSpaceOnUse">
<stop stop-color="#722E23"/>
</linearGradient>
</defs>
</svg>
