<svg width="24" height="24" viewBox="0 0 24 24" fill="none" xmlns="http://www.w3.org/2000/svg">
<g clip-path="url(#clip0_4_1525)">
<path fill-rule="evenodd" clip-rule="evenodd" d="M4.85485 4.79819C4.77343 4.29582 4.51586 3.83884 4.12827 3.50903C3.74067 3.17923 3.24835 2.99814 2.73943 2.99819H1.8C1.459 2.99819 1.13198 2.86273 0.890859 2.62161C0.649741 2.38049 0.514282 2.05346 0.514282 1.71247C0.514282 1.37148 0.649741 1.04445 0.890859 0.803335C1.13198 0.562217 1.459 0.426758 1.8 0.426758H2.73943C3.76563 0.426665 4.76384 0.761427 5.5825 1.38022C6.40116 1.99901 6.99555 2.86802 7.27542 3.85533H21.8983C22.8446 3.85533 23.6194 4.62504 23.5371 5.5679C23.3653 7.56217 22.9009 9.5203 22.1589 11.3793C21.9574 11.8762 21.6358 12.3152 21.223 12.6572C20.8101 12.9992 20.3188 13.2334 19.7931 13.3388C18.672 13.5685 16.9611 13.8016 14.6314 13.8016C12.9634 13.8016 11.5577 13.6816 10.4434 13.529C9.8417 13.4508 9.26775 13.2285 8.77028 12.881L9.03085 14.4839C9.11228 14.9863 9.36984 15.4433 9.75744 15.7731C10.145 16.1029 10.6374 16.2839 11.1463 16.2839H20.6571C20.9981 16.2839 21.3252 16.4194 21.5663 16.6605C21.8074 16.9016 21.9429 17.2286 21.9429 17.5696C21.9429 17.9106 21.8074 18.2376 21.5663 18.4788C21.3252 18.7199 20.9981 18.8553 20.6571 18.8553H11.1463C10.0266 18.8555 8.9434 18.4571 8.09062 17.7316C7.23784 17.006 6.67115 16.0006 6.492 14.8953L4.85485 4.79819ZM9.26228 23.5593C9.52102 23.5703 9.77929 23.5288 10.0216 23.4373C10.2638 23.3458 10.4851 23.2063 10.6721 23.0271C10.859 22.8479 11.0078 22.6327 11.1094 22.3945C11.211 22.1563 11.2634 21.9 11.2634 21.641C11.2634 21.3821 11.211 21.1258 11.1094 20.8876C11.0078 20.6494 10.859 20.4342 10.6721 20.255C10.4851 20.0758 10.2638 19.9363 10.0216 19.8448C9.77929 19.7533 9.52102 19.7118 9.26228 19.7228C8.76755 19.7437 8.30003 19.9549 7.95737 20.3124C7.61471 20.6698 7.4234 21.1459 7.4234 21.641C7.4234 22.1362 7.61471 22.6122 7.95737 22.9697C8.30003 23.3272 8.76755 23.5384 9.26228 23.5593ZM22.5754 21.6393C22.5864 21.8981 22.5449 22.1563 22.4534 22.3986C22.3619 22.6409 22.2224 22.8622 22.0432 23.0491C21.864 23.236 21.6488 23.3848 21.4106 23.4864C21.1724 23.5881 20.9161 23.6404 20.6571 23.6404C20.3982 23.6404 20.1419 23.5881 19.9037 23.4864C19.6655 23.3848 19.4503 23.236 19.2711 23.0491C19.0919 22.8622 18.9524 22.6409 18.8609 22.3986C18.7694 22.1563 18.7279 21.8981 18.7389 21.6393C18.7598 21.1446 18.971 20.6771 19.3285 20.3344C19.6859 19.9918 20.162 19.8004 20.6571 19.8004C21.1523 19.8004 21.6283 19.9918 21.9858 20.3344C22.3433 20.6771 22.5545 21.1446 22.5754 21.6393Z" fill="#722E23"/>
</g>
<defs>
<clipPath id="clip0_4_1525">
<rect width="24" height="24" fill="white"/>
</clipPath>
</defs>
</svg>
