<svg width="18" height="17" viewBox="0 0 18 17" fill="none" xmlns="http://www.w3.org/2000/svg">
<path fill-rule="evenodd" clip-rule="evenodd" d="M11.0621 4.664C10.6782 4.67664 10.2989 4.75162 9.93911 4.886C9.6404 5.00446 9.32616 5.07923 9.00611 5.108C8.69961 5.075 8.39774 5.00792 8.10611 4.908C7.73352 4.78849 7.34617 4.72119 6.95511 4.708C6.59424 4.70499 6.23792 4.78871 5.91615 4.95212C5.59438 5.11553 5.31657 5.35384 5.10611 5.647C4.59297 6.35029 4.33447 7.20727 4.37311 8.077C4.37503 8.6271 4.4562 9.17405 4.61411 9.701C4.788 10.2767 5.02864 10.8302 5.33111 11.35C5.58251 11.8228 5.91064 12.2506 6.30211 12.616C6.5672 12.8721 6.91688 13.0222 7.28511 13.038C7.58293 13.0193 7.87462 12.945 8.14511 12.819C8.43776 12.6868 8.75322 12.6124 9.07411 12.6C9.4102 12.6141 9.74151 12.6847 10.0541 12.809C10.3441 12.9275 10.6515 12.9981 10.9641 13.018C11.2705 13.008 11.565 12.8965 11.8011 12.701C12.132 12.431 12.4149 12.1071 12.6381 11.743C12.8148 11.4762 12.9748 11.1986 13.1171 10.912C13.245 10.6543 13.352 10.3868 13.4371 10.112C13.0104 9.96593 12.6473 9.67697 12.4091 9.294C12.1108 8.86867 11.9534 8.36048 11.9591 7.841C11.9605 7.48872 12.0398 7.14111 12.1911 6.823C12.4235 6.39714 12.7423 6.02452 13.1271 5.729C12.8703 5.39374 12.546 5.11609 12.1751 4.914C11.8288 4.73979 11.4457 4.65163 11.0581 4.657L11.0621 4.664ZM10.9511 2.22C10.3066 2.32458 9.72542 2.66893 9.32411 3.184C8.9911 3.67593 8.81662 4.258 8.82411 4.852C9.09586 4.84722 9.36452 4.79336 9.61711 4.693C9.83576 4.59021 10.0337 4.44819 10.2011 4.274C10.4607 4.02025 10.665 3.71553 10.8011 3.379C10.9195 3.09753 10.984 2.79629 10.9911 2.491C10.9911 2.449 10.9911 2.406 10.9851 2.364C10.9793 2.3144 10.9685 2.2655 10.9531 2.218L10.9511 2.22ZM9.03211 0C10.6875 0 12.3058 0.490892 13.6822 1.4106C15.0587 2.33031 16.1315 3.63752 16.765 5.16694C17.3985 6.69636 17.5642 8.37929 17.2413 10.0029C16.9183 11.6265 16.1212 13.1179 14.9506 14.2885C13.78 15.4591 12.2886 16.2562 10.665 16.5792C9.04139 16.9021 7.35847 16.7364 5.82905 16.1029C4.29963 15.4694 2.99242 14.3966 2.07271 13.0201C1.153 11.6437 0.662109 10.0254 0.662109 8.37C0.662109 6.15014 1.54395 4.0212 3.11363 2.45152C4.6833 0.881837 6.81225 0 9.03211 0Z" fill="#31435B"/>
</svg>
