<svg width="18" height="18" viewBox="0 0 18 18" fill="none" xmlns="http://www.w3.org/2000/svg">
<path d="M3.88621 10.598L3.27621 12.877L1.04521 12.924C0.37025 11.667 0.0116021 10.2646 0.00027682 8.838C-0.0110485 7.41136 0.32529 6.00344 0.980209 4.73596L2.96621 5.09996L3.83621 7.07396C3.44483 8.21865 3.46215 9.46359 3.88521 10.597L3.88621 10.598Z" fill="#FBBB00"/>
<path d="M17.3829 7.12994C17.6805 8.69344 17.5467 10.3085 16.996 11.8017C16.4453 13.295 15.4984 14.6101 14.2569 15.6059L11.7569 15.478L11.4029 13.2679C12.4363 12.6623 13.2302 11.7201 13.6519 10.599H8.96289V7.12994H17.3829Z" fill="#518EF8"/>
<path d="M14.2579 15.6059C13.2545 16.4113 12.0861 16.986 10.8357 17.2893C9.58535 17.5926 8.28354 17.6171 7.02262 17.3611C5.7617 17.105 4.57255 16.5747 3.5395 15.8077C2.50645 15.0407 1.65479 14.0559 1.04492 12.9229L3.88692 10.5969C4.15375 11.3081 4.57272 11.9525 5.11453 12.4848C5.65634 13.0172 6.3079 13.4248 7.02367 13.6791C7.73943 13.9334 8.50211 14.0283 9.25837 13.9571C10.0146 13.8859 10.7462 13.6504 11.4019 13.2669L14.2579 15.6059Z" fill="#28B446"/>
<path d="M14.3635 2.01895L11.5225 4.34395C10.8571 3.92952 10.1068 3.67047 9.32749 3.58606C8.54814 3.50165 7.75979 3.59405 7.02109 3.8564C6.28239 4.11874 5.61235 4.54428 5.06082 5.10134C4.50929 5.65841 4.09047 6.33266 3.83552 7.07395L0.978516 4.73595C1.58112 3.57271 2.43667 2.55926 3.48232 1.77004C4.52796 0.980825 5.73714 0.435893 7.02101 0.175282C8.30488 -0.0853286 9.63083 -0.0549979 10.9014 0.264046C12.1721 0.583091 13.355 1.18274 14.3635 2.01895Z" fill="#F14336"/>
</svg>
