<svg width="22" height="22" viewBox="0 0 22 22" fill="none" xmlns="http://www.w3.org/2000/svg">
<path d="M11 12.5C16.775 12.5 21.5 16.25 21.5 19.25C21.5 19.8467 21.2629 20.419 20.841 20.841C20.419 21.2629 19.8467 21.5 19.25 21.5H2.75C2.15326 21.5 1.58097 21.2629 1.15901 20.841C0.737053 20.419 0.5 19.8467 0.5 19.25C0.5 16.25 5.225 12.5 11 12.5ZM11 0.5C12.3924 0.5 13.7277 1.05312 14.7123 2.03769C15.6969 3.02226 16.25 4.35761 16.25 5.75C16.25 7.14239 15.6969 8.47774 14.7123 9.46231C13.7277 10.4469 12.3924 11 11 11C9.60761 11 8.27226 10.4469 7.28769 9.46231C6.30312 8.47774 5.75 7.14239 5.75 5.75C5.75 4.35761 6.30312 3.02226 7.28769 2.03769C8.27226 1.05312 9.60761 0.5 11 0.5Z" fill="#722E23"/>
</svg>
